<svg width="163" height="31" viewBox="0 0 163 31" fill="none" xmlns="http://www.w3.org/2000/svg">
<path d="M14.0455 8C13.9848 7.24242 13.7008 6.65151 13.1932 6.22727C12.6932 5.80303 11.9318 5.59091 10.9091 5.59091C10.2576 5.59091 9.72348 5.67045 9.30682 5.82954C8.89773 5.98106 8.5947 6.18939 8.39773 6.45454C8.20076 6.7197 8.09848 7.02273 8.09091 7.36364C8.07576 7.64394 8.125 7.89773 8.23864 8.125C8.35985 8.3447 8.54924 8.54545 8.80682 8.72727C9.06439 8.90151 9.39394 9.06061 9.79545 9.20455C10.197 9.34848 10.6742 9.47727 11.2273 9.59091L13.1364 10C14.4242 10.2727 15.5265 10.6326 16.4432 11.0795C17.3598 11.5265 18.1098 12.053 18.6932 12.6591C19.2765 13.2576 19.7045 13.9318 19.9773 14.6818C20.2576 15.4318 20.4015 16.25 20.4091 17.1364C20.4015 18.6667 20.0189 19.9621 19.2614 21.0227C18.5038 22.0833 17.4205 22.8902 16.0114 23.4432C14.6098 23.9962 12.9242 24.2727 10.9545 24.2727C8.93182 24.2727 7.16667 23.9735 5.65909 23.375C4.15909 22.7765 2.99242 21.8561 2.15909 20.6136C1.33333 19.3636 0.916667 17.7652 0.909091 15.8182H6.90909C6.94697 16.5303 7.125 17.1288 7.44318 17.6136C7.76136 18.0985 8.20833 18.4659 8.78409 18.7159C9.36742 18.9659 10.0606 19.0909 10.8636 19.0909C11.5379 19.0909 12.1023 19.0076 12.5568 18.8409C13.0114 18.6742 13.3561 18.4432 13.5909 18.1477C13.8258 17.8523 13.947 17.5152 13.9545 17.1364C13.947 16.7803 13.8295 16.4697 13.6023 16.2045C13.3826 15.9318 13.0189 15.6894 12.5114 15.4773C12.0038 15.2576 11.3182 15.053 10.4545 14.8636L8.13636 14.3636C6.07576 13.9167 4.45076 13.1705 3.26136 12.125C2.07955 11.072 1.49242 9.63636 1.5 7.81818C1.49242 6.34091 1.88636 5.04924 2.68182 3.94318C3.48485 2.82954 4.5947 1.96212 6.01136 1.34091C7.43561 0.719696 9.06818 0.40909 10.9091 0.40909C12.7879 0.40909 14.4129 0.723484 15.7841 1.35227C17.1553 1.98106 18.2121 2.86742 18.9545 4.01136C19.7045 5.14773 20.0833 6.47727 20.0909 8H14.0455ZM31.3125 24.3182C29.4186 24.3182 27.7973 23.9432 26.4489 23.1932C25.1004 22.4356 24.0663 21.3826 23.3466 20.0341C22.6269 18.678 22.267 17.1061 22.267 15.3182C22.267 13.5303 22.6269 11.9621 23.3466 10.6136C24.0663 9.25758 25.1004 8.20454 26.4489 7.45454C27.7973 6.69697 29.4186 6.31818 31.3125 6.31818C33.0246 6.31818 34.5057 6.62879 35.7557 7.25C37.0133 7.86364 37.9867 8.73485 38.6761 9.86364C39.3655 10.9848 39.714 12.303 39.7216 13.8182H33.9034C33.8201 12.9015 33.5549 12.2045 33.108 11.7273C32.6686 11.2424 32.1004 11 31.4034 11C30.858 11 30.3807 11.1591 29.9716 11.4773C29.5625 11.7879 29.2443 12.2614 29.017 12.8977C28.7898 13.5265 28.6761 14.3182 28.6761 15.2727C28.6761 16.2273 28.7898 17.0227 29.017 17.6591C29.2443 18.2879 29.5625 18.7614 29.9716 19.0795C30.3807 19.3902 30.858 19.5455 31.4034 19.5455C31.8655 19.5455 32.2746 19.4394 32.6307 19.2273C32.9867 19.0076 33.2746 18.6894 33.4943 18.2727C33.7216 17.8485 33.858 17.3333 33.9034 16.7273H39.7216C39.6989 18.2652 39.3466 19.6061 38.6648 20.75C37.983 21.8864 37.017 22.7652 35.767 23.3864C34.5246 24.0076 33.0398 24.3182 31.3125 24.3182ZM50.7188 24.3182C48.8248 24.3182 47.2036 23.9432 45.8551 23.1932C44.5066 22.4356 43.4725 21.3826 42.7528 20.0341C42.0331 18.678 41.6733 17.1061 41.6733 15.3182C41.6733 13.5303 42.0331 11.9621 42.7528 10.6136C43.4725 9.25758 44.5066 8.20454 45.8551 7.45454C47.2036 6.69697 48.8248 6.31818 50.7188 6.31818C52.6127 6.31818 54.2339 6.69697 55.5824 7.45454C56.9309 8.20454 57.965 9.25758 58.6847 10.6136C59.4044 11.9621 59.7642 13.5303 59.7642 15.3182C59.7642 17.1061 59.4044 18.678 58.6847 20.0341C57.965 21.3826 56.9309 22.4356 55.5824 23.1932C54.2339 23.9432 52.6127 24.3182 50.7188 24.3182ZM50.7642 19.6818C51.2945 19.6818 51.7528 19.5038 52.1392 19.1477C52.5256 18.7917 52.8248 18.2841 53.0369 17.625C53.2491 16.9659 53.3551 16.1818 53.3551 15.2727C53.3551 14.3561 53.2491 13.572 53.0369 12.9205C52.8248 12.2614 52.5256 11.7538 52.1392 11.3977C51.7528 11.0417 51.2945 10.8636 50.7642 10.8636C50.2036 10.8636 49.7225 11.0417 49.321 11.3977C48.9195 11.7538 48.6127 12.2614 48.4006 12.9205C48.1884 13.572 48.0824 14.3561 48.0824 15.2727C48.0824 16.1818 48.1884 16.9659 48.4006 17.625C48.6127 18.2841 48.9195 18.7917 49.321 19.1477C49.7225 19.5038 50.2036 19.6818 50.7642 19.6818ZM73.6278 16.3636V6.54545H79.9006V24H73.946V20.6818H73.7642C73.3854 21.7955 72.7225 22.6667 71.7756 23.2955C70.8286 23.9167 69.7036 24.2273 68.4006 24.2273C67.1809 24.2273 66.1127 23.947 65.196 23.3864C64.2869 22.8258 63.5786 22.053 63.071 21.0682C62.571 20.0833 62.3172 18.9545 62.3097 17.6818V6.54545H68.5824V16.3636C68.59 17.2273 68.8097 17.9053 69.2415 18.3977C69.6809 18.8902 70.2945 19.1364 71.0824 19.1364C71.6051 19.1364 72.0559 19.0265 72.4347 18.8068C72.821 18.5795 73.1165 18.2614 73.321 17.8523C73.5331 17.4356 73.6354 16.9394 73.6278 16.3636ZM93.5 6.54545V11.0909H82V6.54545H93.5ZM84.2273 2.36364H90.5V18.3864C90.5 18.6288 90.5417 18.8333 90.625 19C90.7083 19.1591 90.8371 19.2803 91.0114 19.3636C91.1856 19.4394 91.4091 19.4773 91.6818 19.4773C91.8712 19.4773 92.0909 19.4545 92.3409 19.4091C92.5985 19.3636 92.7879 19.3258 92.9091 19.2955L93.8182 23.7045C93.5379 23.7879 93.1364 23.8902 92.6136 24.0114C92.0985 24.1326 91.4848 24.2121 90.7727 24.25C89.3333 24.3258 88.125 24.178 87.1477 23.8068C86.1705 23.428 85.4356 22.8333 84.9432 22.0227C84.4508 21.2121 84.2121 20.197 84.2273 18.9773V2.36364ZM96.3438 24V0.727272H106.389C108.116 0.727272 109.628 1.06818 110.923 1.75C112.219 2.43182 113.226 3.39015 113.946 4.625C114.666 5.85985 115.026 7.30303 115.026 8.95455C115.026 10.6212 114.654 12.0644 113.912 13.2841C113.177 14.5038 112.143 15.4432 110.81 16.1023C109.484 16.7614 107.935 17.0909 106.162 17.0909H100.162V12.1818H104.889C105.632 12.1818 106.264 12.053 106.787 11.7955C107.317 11.5303 107.723 11.1553 108.003 10.6705C108.291 10.1856 108.435 9.61364 108.435 8.95455C108.435 8.28788 108.291 7.7197 108.003 7.25C107.723 6.77273 107.317 6.40909 106.787 6.15909C106.264 5.90151 105.632 5.77273 104.889 5.77273H102.662V24H96.3438ZM123.707 0.727272V24H117.435V0.727272H123.707ZM131.767 24.2727C130.653 24.2727 129.669 24.0909 128.812 23.7273C127.964 23.3561 127.297 22.7955 126.812 22.0455C126.328 21.2955 126.085 20.3409 126.085 19.1818C126.085 18.2273 126.248 17.4129 126.574 16.7386C126.9 16.0568 127.354 15.5 127.938 15.0682C128.521 14.6364 129.199 14.3068 129.972 14.0795C130.752 13.8523 131.593 13.7045 132.494 13.6364C133.472 13.5606 134.256 13.4697 134.847 13.3636C135.445 13.25 135.877 13.0947 136.142 12.8977C136.407 12.6932 136.54 12.4242 136.54 12.0909V12.0455C136.54 11.5909 136.366 11.2424 136.017 11C135.669 10.7576 135.222 10.6364 134.676 10.6364C134.078 10.6364 133.589 10.7689 133.21 11.0341C132.839 11.2917 132.616 11.6894 132.54 12.2273H126.767C126.843 11.1667 127.18 10.1894 127.778 9.29545C128.384 8.39394 129.267 7.67424 130.426 7.13636C131.585 6.59091 133.032 6.31818 134.767 6.31818C136.017 6.31818 137.138 6.46591 138.131 6.76136C139.123 7.04924 139.968 7.45455 140.665 7.97727C141.362 8.49242 141.892 9.09848 142.256 9.79545C142.627 10.4848 142.812 11.2348 142.812 12.0455V24H136.949V21.5455H136.812C136.464 22.197 136.04 22.7235 135.54 23.125C135.047 23.5265 134.483 23.8182 133.847 24C133.218 24.1818 132.525 24.2727 131.767 24.2727ZM133.812 20.3182C134.29 20.3182 134.737 20.2197 135.153 20.0227C135.578 19.8258 135.922 19.5417 136.188 19.1705C136.453 18.7992 136.585 18.3485 136.585 17.8182V16.3636C136.419 16.4318 136.241 16.4962 136.051 16.5568C135.869 16.6174 135.672 16.6742 135.46 16.7273C135.256 16.7803 135.036 16.8295 134.801 16.875C134.574 16.9205 134.335 16.9621 134.085 17C133.6 17.0758 133.203 17.2008 132.892 17.375C132.589 17.5417 132.362 17.75 132.21 18C132.066 18.2424 131.994 18.5152 131.994 18.8182C131.994 19.303 132.165 19.6742 132.506 19.9318C132.847 20.1894 133.282 20.3182 133.812 20.3182ZM149.003 30.5455C148.283 30.5455 147.598 30.4886 146.946 30.375C146.295 30.2689 145.723 30.1212 145.23 29.9318L146.594 25.4773C147.109 25.6591 147.579 25.7765 148.003 25.8295C148.435 25.8826 148.802 25.8523 149.105 25.7386C149.416 25.625 149.639 25.4091 149.776 25.0909L149.912 24.7727L143.776 6.54545H150.321L153.139 18.6364H153.321L156.185 6.54545H162.776L156.412 25.4545C156.094 26.4167 155.632 27.2803 155.026 28.0455C154.427 28.8182 153.639 29.428 152.662 29.875C151.685 30.322 150.465 30.5455 149.003 30.5455Z" fill="#007421"/>
</svg>
